[Header]
FileType HTR
DataType HTRS
FileVersion 1
NumSegments 22
NumFrames 8
DataFrameRate 24
EulerRotationOrder ZYX
CalibrationUnits mm
RotationUnits Degrees
GlobalAxisofGravity Y
BoneLengthAxis Y
ScaleFactor 1.0
[SegmentNames&Hierarchy]
reference	GLOBAL
Hips	reference
Spine	Hips
Spine1	Spine
Neck	Spine1
Head	Neck
LeftShoulder	Spine1
LeftArm	LeftShoulder
LeftForeArm	LeftArm
LeftHand	LeftForeArm
RightShoulder	Spine1
RightArm	RightShoulder
RightForeArm	RightArm
RightHand	RightForeArm
LeftUpLeg	Hips
LeftLeg	LeftUpLeg
LeftFoot	LeftLeg
LeftToeBase	LeftFoot
RightUpLeg	Hips
RightLeg	RightUpLeg
RightFoot	RightLeg
RightToeBase	RightFoot
[BasePosition]
reference	0	0	0	0	0	0	1
Hips	0	0	0	0	0	0	1
Spine	0	0	0	0	-0	90	1
Spine1	0	0	0	0	0	0	1
Neck	0	0	0	-7.352327771	-7.352327771	90	1
Head	0	0	0	0	-0	90	1
LeftShoulder	0	0	0	0	0	0	1
LeftArm	0	0	0	0	0	0	1
LeftForeArm	0	0	0	0	0	0	1
LeftHand	0	0	0	0	0	0	1
RightShoulder	0	0	0	0	-0	180	1
RightArm	0	0	0	0	-0	180	1
RightForeArm	0	0	0	0	-0	180	1
RightHand	0	0	0	0	-0	180	1
LeftUpLeg	0	0	0	0	-0	-90	1
LeftLeg	0	0	0	0	-0	-90	1
LeftFoot	0	0	0	66.57146043	-66.57146043	-90	1
LeftToeBase	0	0	0	0	-90	0	1
RightUpLeg	0	0	0	0	-0	-90	1
RightLeg	0	0	0	0	-0	-90	1
RightFoot	0	0	0	66.57146043	-66.57146043	-90	1
RightToeBase	0	0	0	0	-90	0	1
[reference]
64	0	0	0	0	-0	0	1.0
65	0	0	0	0	-0	0	1.0
66	0	0	0	0	-0	0	1.0
67	0	0	0	0	-0	0	1.0
68	0	0	0	0	-0	0	1.0
69	0	0	0	0	-0	0	1.0
70	0	0	0	0	-0	0	1.0
71	0	0	0	0	-0	0	1.0
[Hips]
64	-2.30901432	8.182125092	4.266758919	4.366618156	-63.53377533	-1.674548745	1.0
65	-2.634427547	8.254097939	4.378848076	5.064462662	-64.38526917	-2.587929726	1.0
66	-2.984721899	8.29587841	4.517137527	3.783195734	-64.29055023	-1.329931021	1.0
67	-3.338880062	8.309733391	4.620200157	4.168932438	-64.62478638	-2.057869196	1.0
68	-3.658653498	8.316387177	4.708264351	6.774031639	-66.56746674	-5.722867489	1.0
69	-3.928912878	8.259551048	4.809386253	9.170257568	-67.93238831	-9.317894936	1.0
70	-4.210878372	8.2115345	4.900125504	9.109327316	-67.85357666	-9.79652977	1.0
71	-4.45756197	8.200538635	5.005374432	8.62021637	-68.11093903	-8.98656559	1.0
[Spine]
64	0	0.7457100153	0	-5.538674831	-0.4506316781	-91.27313995	1.0
65	0	0.7457100153	0	-5.888242722	-0.2660062015	-90.53481293	1.0
66	0	0.7457100153	0	-6.400997162	-0.7950842977	-90.91770172	1.0
67	0	0.7457100153	0	-6.535857201	-0.5922017694	-90.87251282	1.0
68	0	0.7457100153	0	-6.279501438	0.6747173071	-89.65119171	1.0
69	0	0.7457100153	0	-5.73321867	1.477922916	-87.96295929	1.0
70	0	0.7457100153	0	-6.699408054	0.6387184262	-88.46444702	1.0
71	0	0.7457100153	0	-6.899472237	0.03378225863	-89.04127502	1.0
[Spine1]
64	0	2.140589952	0	8.104848862	-0.2980957329	2.325036049	1.0
65	0	2.140589952	0	8.101999283	-0.2008527815	1.704285264	1.0
66	0	2.140589952	0	7.225870609	-0.3430151343	1.519080043	1.0
67	0	2.140589952	0	6.213868141	-0.2599914968	1.367175341	1.0
68	0	2.140589952	0	6.366389275	0.1406011581	0.5706080794	1.0
69	0	2.140589952	0	7.303399563	0.4057441056	0.8300132751	1.0
70	0	2.140589952	0	9.444280624	0.09935156256	1.681938648	1.0
71	0	2.140589952	0	9.571164131	-0.02500890754	1.902427673	1.0
[Neck]
64	0	2.32246995	0	-16.90638351	8.253531456	-89.47549438	1.0
65	0	2.32246995	0	-16.74900627	8.280162811	-89.86075592	1.0
66	0	2.32246995	0	-15.78770638	8.267170906	-90.03379822	1.0
67	0	2.32246995	0	-13.83752632	8.088513374	-89.84711456	1.0
68	0	2.32246995	0	-12.41713619	8.027213097	-89.31163025	1.0
69	0	2.32246995	0	-13.62670326	7.52845335	-90.40625763	1.0
70	0	2.32246995	0	-14.52254868	6.178662777	-90.31764221	1.0
71	0	2.32246995	0	-13.8876133	1.977394938	-88.79988098	1.0
[Head]
64	0	1.409579992	0.1818799973	-5.762699127	1.200524092	-93.94670868	1.0
65	0	1.409579992	0.1818799973	-5.722280025	1.156680465	-92.58866882	1.0
66	0	1.409579992	0.1818799973	-4.445118427	1.162789822	-92.32042694	1.0
67	0	1.409579992	0.1818799973	-4.114969254	0.9394608736	-91.95266724	1.0
68	0	1.409579992	0.1818799973	-5.087585926	0.8033468127	-91.60427856	1.0
69	0	1.409579992	0.1818799973	-4.578207016	0.2573267221	-90.57171631	1.0
70	0	1.409579992	0.1818799973	-5.004743099	-0.8015258908	-90.40701294	1.0
71	0	1.409579992	0.1818799973	-7.508769989	-0.1772366166	-94.10215759	1.0
[LeftShoulder]
64	0.3668199778	1.946700096	-0.02662999928	-14.47767544	-14.24078369	1.938936472	1.0
65	0.3668199778	1.946700096	-0.02662999928	-14.33570576	-13.83831692	1.473685861	1.0
66	0.3668199778	1.946700096	-0.02662999928	-14.23942089	-13.45202065	1.166758537	1.0
67	0.3668199778	1.946700096	-0.02662999928	-15.08313084	-13.14121819	1.417939425	1.0
68	0.3668199778	1.946700096	-0.02662999928	-12.30503082	-13.0746727	-0.2669819593	1.0
69	0.3668199778	1.946700096	-0.02662999928	-14.42807865	-14.21784019	-1.653240919	1.0
70	0.3668199778	1.946700096	-0.02662999928	-14.39977932	-14.4014225	-3.251954317	1.0
71	0.3668199778	1.946700096	-0.02662999928	-18.81978035	-14.09686852	-1.737877131	1.0
[LeftArm]
64	1.140689969	0	0	22.83166885	24.88356781	-67.82966614	1.0
65	1.140689969	0	0	23.91857719	23.58923912	-70.01934052	1.0
66	1.140689969	0	0	27.05463219	22.54827881	-72.22801971	1.0
67	1.140689969	0	0	31.0845871	21.82525063	-74.04345703	1.0
68	1.140689969	0	0	33.72889328	17.62608528	-73.30045319	1.0
69	1.140689969	0	0	35.20359802	16.89541626	-73.0967865	1.0
70	1.140689969	0	0	39.80551147	13.35420513	-72.29141998	1.0
71	1.140689969	0	0	43.78145981	13.95788574	-74.41748047	1.0
[LeftForeArm]
64	2.749800205	0	0	-9.842754364	-5.780189514	-4.047530651	1.0
65	2.749800205	0	0	-11.38435364	-5.338525295	-2.714963198	1.0
66	2.749800205	0	0	-12.41020584	-5.96650219	-2.211349726	1.0
67	2.749800205	0	0	-12.76808739	-7.538060188	-1.848163486	1.0
68	2.749800205	0	0	-12.219203	-11.10769367	-1.148890376	1.0
69	2.749800205	0	0	-11.96843815	-14.93937969	-0.4603564739	1.0
70	2.749800205	0	0	-13.14844322	-18.94771194	1.349819422	1.0
71	2.749800205	0	0	-12.74485683	-22.8404274	3.692085266	1.0
[LeftHand]
64	2.295179844	0	0	-10.0310936	-1.894817352	-0.9837985635	1.0
65	2.295179844	0	0	-11.5076685	0.08224123716	4.635988712	1.0
66	2.295179844	0	0	-12.5270834	-0.04099655524	4.302384853	1.0
67	2.295179844	0	0	-12.87923527	-3.031257153	-0.4041575491	1.0
68	2.295179844	0	0	-12.14896202	-4.695713043	-4.427182198	1.0
69	2.295179844	0	0	-11.74530315	-6.983397484	-4.683670998	1.0
70	2.295179844	0	0	-12.51941109	-9.565171242	-4.866443634	1.0
71	2.295179844	0	0	-11.63006496	-11.05592537	-3.819143772	1.0
[RightShoulder]
64	-0.3601199985	1.946700096	-0.02662999928	-8.439292908	2.877076864	174.8289185	1.0
65	-0.3601199985	1.946700096	-0.02662999928	-8.760484695	3.527274847	174.7631836	1.0
66	-0.3601199985	1.946700096	-0.02662999928	-8.859491348	3.67634964	174.7183838	1.0
67	-0.3601199985	1.946700096	-0.02662999928	-8.543392181	3.61181283	174.9260559	1.0
68	-0.3601199985	1.946700096	-0.02662999928	-8.009114265	4.425472736	175.5178528	1.0
69	-0.3601199985	1.946700096	-0.02662999928	-9.34525013	3.941586256	174.1180115	1.0
70	-0.3601199985	1.946700096	-0.02662999928	-9.372859001	4.013659954	173.9360962	1.0
71	-0.3601199985	1.946700096	-0.02662999928	-10.77265263	3.071387529	173.3445129	1.0
[RightArm]
64	-1.140689969	0	0	67.30278015	18.48679161	-100.4204102	1.0
65	-1.140689969	0	0	68.5867691	15.4073391	-97.67253876	1.0
66	-1.140689969	0	0	69.38128662	12.16509533	-95.59384918	1.0
67	-1.140689969	0	0	68.97000122	9.314385414	-94.25473785	1.0
68	-1.140689969	0	0	68.2869873	7.766067505	-93.87130737	1.0
69	-1.140689969	0	0	67.70072174	6.272168636	-92.55564117	1.0
70	-1.140689969	0	0	65.56948853	6.240046024	-93.11594391	1.0
71	-1.140689969	0	0	60.88076782	3.742057562	-93.7804184	1.0
[RightForeArm]
64	-2.749800205	0	0	4.159945965	55.68266296	171.3049011	1.0
65	-2.749800205	0	0	3.319706917	50.19968033	169.2345428	1.0
66	-2.749800205	0	0	3.839923859	43.69251633	170.4550018	1.0
67	-2.749800205	0	0	4.393867016	36.79468918	172.3222351	1.0
68	-2.749800205	0	0	3.125783205	29.19246864	174.0829163	1.0
69	-2.749800205	0	0	0.9017292857	21.93336296	175.3068542	1.0
70	-2.749800205	0	0	2.136968136	14.64914131	177.9524536	1.0
71	-2.749800205	0	0	2.942346334	9.361125946	180.263092	1.0
[RightHand]
64	-2.295179844	0	0	7.21539402	15.24360847	168.4667969	1.0
65	-2.295179844	0	0	7.239703178	15.02369785	171.4491577	1.0
66	-2.295179844	0	0	6.696362019	14.54931355	172.2948608	1.0
67	-2.295179844	0	0	5.9383564	14.65303612	172.210968	1.0
68	-2.295179844	0	0	3.157084942	15.09182835	168.536026	1.0
69	-2.295179844	0	0	1.048309088	11.66585732	172.4822235	1.0
70	-2.295179844	0	0	1.921610713	9.53024292	174.3304901	1.0
71	-2.295179844	0	0	2.615867376	5.865695953	173.9920654	1.0
[LeftUpLeg]
64	0.9094099998	0	0	10.35727501	2.508789539	88.54328918	1.0
65	0.9094099998	0	0	8.499116898	2.123117924	89.26409912	1.0
66	0.9094099998	0	0	5.251903057	3.770733356	89.82542419	1.0
67	0.9094099998	0	0	0.5446095467	6.284071922	91.93624115	1.0
68	0.9094099998	0	0	-4.468742847	8.862068176	94.22784424	1.0
69	0.9094099998	0	0	-9.580183029	5.460533619	97.00696564	1.0
70	0.9094099998	0	0	-16.34202576	3.989911079	96.97450256	1.0
71	0.9094099998	0	0	-22.59693527	0.6420129538	96.85759735	1.0
[LeftLeg]
64	0	-4.498080254	0	17.05718422	-13.44661999	82.96328735	1.0
65	0	-4.498080254	0	26.69552803	-14.53702164	78.91416168	1.0
66	0	-4.498080254	0	36.78722382	-4.494029522	82.43706512	1.0
67	0	-4.498080254	0	49.82899857	-1.025900364	82.62898254	1.0
68	0	-4.498080254	0	62.59754944	4.642835617	90.91442871	1.0
69	0	-4.498080254	0	73.95357513	8.200573921	90.52925873	1.0
70	0	-4.498080254	0	81.82629395	7.481160641	92.97061157	1.0
71	0	-4.498080254	0	83.64263916	8.350408554	92.40586853	1.0
[LeftFoot]
64	0	-3.729400158	0	-99.46334839	108.7371979	-32.44547653	1.0
65	0	-3.729400158	0	-84.39558411	106.925087	-21.05711365	1.0
66	0	-3.729400158	0	-111.9842072	99.33145142	-60.58942032	1.0
67	0	-3.729400158	0	-113.6998749	96.51049805	-74.18171692	1.0
68	0	-3.729400158	0	-136.5307007	100.5312119	-109.2647552	1.0
69	0	-3.729400158	0	-135.8525391	100.6268539	-110.7304611	1.0
70	0	-3.729400158	0	-118.5544434	100.4207458	-89.84783936	1.0
71	0	-3.729400158	0	-102.4883652	102.2550354	-71.65948486	1.0
[LeftToeBase]
64	0	-0.5911099911	1.364109993	0	0	0	1.0
65	0	-0.5911099911	1.364109993	0	0	0	1.0
66	0	-0.5911099911	1.364109993	0	0	0	1.0
67	0	-0.5911099911	1.364109993	0	0	0	1.0
68	0	-0.5911099911	1.364109993	0	0	0	1.0
69	0	-0.5911099911	1.364109993	0	0	0	1.0
70	0	-0.5911099911	1.364109993	0	0	0	1.0
71	0	-0.5911099911	1.364109993	0	0	0	1.0
[RightUpLeg]
64	-0.9094099998	0	0	-26.43044281	-10.05675411	99.02227783	1.0
65	-0.9094099998	0	0	-25.98389244	-5.633285522	97.64515686	1.0
66	-0.9094099998	0	0	-22.48141098	-7.729293823	96.33811951	1.0
67	-0.9094099998	0	0	-18.15202713	-7.937052727	97.73099518	1.0
68	-0.9094099998	0	0	-17.18266678	-1.594406843	97.90270996	1.0
69	-0.9094099998	0	0	-17.30945587	0.5695720315	99.07952881	1.0
70	-0.9094099998	0	0	-16.79985046	-2.253859043	101.5242615	1.0
71	-0.9094099998	0	0	-16.06645203	-3.131910563	101.3889999	1.0
[RightLeg]
64	0	-4.498080254	0	20.20186234	-3.384030581	82.36186218	1.0
65	0	-4.498080254	0	25.41646194	-4.818212986	82.53814697	1.0
66	0	-4.498080254	0	24.36929893	7.266434193	91.10443115	1.0
67	0	-4.498080254	0	20.98982811	6.319254398	87.84063721	1.0
68	0	-4.498080254	0	25.89821243	3.258093834	88.01841736	1.0
69	0	-4.498080254	0	33.40701294	-4.695879936	84.04249573	1.0
70	0	-4.498080254	0	36.00866699	-13.28809738	72.10134125	1.0
71	0	-4.498080254	0	38.69299316	0.9725227356	82.6810379	1.0
[RightFoot]
64	0	-3.729400158	0	64.94210815	69.38082886	108.0990829	1.0
65	0	-3.729400158	0	56.81884766	67.57590485	99.73584747	1.0
66	0	-3.729400158	0	25.96174431	62.47476196	68.4473877	1.0
67	0	-3.729400158	0	27.6076622	63.80586243	73.29653168	1.0
68	0	-3.729400158	0	22.21146393	62.68079758	71.05136871	1.0
69	0	-3.729400158	0	34.62433624	66.3494339	88.4575119	1.0
70	0	-3.729400158	0	69.76519012	67.48600769	130.4807129	1.0
71	0	-3.729400158	0	36.40383911	59.29806137	95.92514038	1.0
[RightToeBase]
64	0	-0.5911099911	1.364109993	0	0	0	1.0
65	0	-0.5911099911	1.364109993	0	0	0	1.0
66	0	-0.5911099911	1.364109993	0	0	0	1.0
67	0	-0.5911099911	1.364109993	0	0	0	1.0
68	0	-0.5911099911	1.364109993	0	0	0	1.0
69	0	-0.5911099911	1.364109993	0	0	0	1.0
70	0	-0.5911099911	1.364109993	0	0	0	1.0
71	0	-0.5911099911	1.364109993	0	0	0	1.0
[EndOfFile]
